HIERARCHY
ROOT Hips
{
  OFFSET 53.0882 95.2725 36.7694
  CHANNELS 6 Xposition Yposition Zposition Zrotation Xrotation Yrotation
  JOINT spine
  {
    OFFSET 0 7.96568 0.458067
    CHANNELS 3 Zrotation Xrotation Yrotation
    JOINT spine1
    {
      OFFSET 0 10.2431 0
      CHANNELS 3 Zrotation Xrotation Yrotation
      JOINT spine2
      {
        OFFSET 0 9.81475 0
        CHANNELS 3 Zrotation Xrotation Yrotation
        JOINT Neck
        {
          OFFSET 0 25.1986 1.20138
          CHANNELS 3 Zrotation Xrotation Yrotation
          JOINT Head
          {
            OFFSET 0 7.61315 0
            CHANNELS 3 Zrotation Xrotation Yrotation
            End Site
            {
              OFFSET 0 18.4281 -6.07733
            }
          }
        }
        JOINT RightShoulder
        {
          OFFSET -4.1327 10.5992 -0.575451
          CHANNELS 3 Zrotation Xrotation Yrotation
          JOINT RightArm
          {
            OFFSET 0 13.9018 0
            CHANNELS 3 Zrotation Xrotation Yrotation
            JOINT RightArmRoll
            {
              OFFSET 0 7.01788 0
              CHANNELS 3 Zrotation Xrotation Yrotation
              JOINT RightForeArm
              {
                OFFSET 0 20.4406 0
                CHANNELS 3 Zrotation Xrotation Yrotation
                JOINT RightForeArmRoll
                {
                  OFFSET 0 7.87515 0
                  CHANNELS 3 Zrotation Xrotation Yrotation
                  JOINT RightHand
                  {
                    OFFSET 0 15.8037 0
                    CHANNELS 3 Zrotation Xrotation Yrotation
                    End Site
                    {
                      OFFSET 0 0 0
                    }
                  }
                }
              }
            }
          }
        }
        JOINT LeftShoulder
        {
          OFFSET 4.1327 10.5992 -0.575451
          CHANNELS 3 Zrotation Xrotation Yrotation
          JOINT LeftArm
          {
            OFFSET 0 13.9018 0
            CHANNELS 3 Zrotation Xrotation Yrotation
            JOINT LeftArmRoll
            {
              OFFSET 0 7.01789 0
              CHANNELS 3 Zrotation Xrotation Yrotation
              JOINT LeftForeArm
              {
                OFFSET 0 20.4406 0
                CHANNELS 3 Zrotation Xrotation Yrotation
                JOINT LeftForeArmRoll
                {
                  OFFSET 0 7.87515 0
                  CHANNELS 3 Zrotation Xrotation Yrotation
                  JOINT LeftHand
                  {
                    OFFSET 0 15.8037 0
                    CHANNELS 3 Zrotation Xrotation Yrotation
                    End Site
                    {
                      OFFSET 0 0 0
                    }
                  }
                }
              }
            }
          }
        }
      }
    }
  }
  JOINT RightUpLeg
  {
    OFFSET -7.06048 -1.2947 -1.0861
    CHANNELS 3 Zrotation Xrotation Yrotation
    JOINT RightUpLegRoll
    {
      OFFSET 0 18.5308 0
      CHANNELS 3 Zrotation Xrotation Yrotation
      JOINT RightLeg
      {
        OFFSET 0 -22.9476 0
        CHANNELS 3 Zrotation Xrotation Yrotation
        JOINT RightLegRoll
        {
          OFFSET 0 23.0226 0
          CHANNELS 3 Zrotation Xrotation Yrotation
          JOINT RightFoot
          {
            OFFSET 0 19.1625 0
            CHANNELS 3 Zrotation Xrotation Yrotation
            JOINT RightToeBase
            {
              OFFSET 0 16.0188 0
              CHANNELS 3 Zrotation Xrotation Yrotation
              End Site
              {
                OFFSET 0.00678979 7.75782 -0.894206
              }
            }
          }
        }
      }
    }
  }
  JOINT LeftUpLeg
  {
    OFFSET 7.06048 -1.2947 -1.0861
    CHANNELS 3 Zrotation Xrotation Yrotation
    JOINT LeftUpLegRoll
    {
      OFFSET 0 18.5309 0
      CHANNELS 3 Zrotation Xrotation Yrotation
      JOINT LeftLeg
      {
        OFFSET 0 22.9475 0
        CHANNELS 3 Zrotation Xrotation Yrotation
        JOINT LeftLegRoll
        {
          OFFSET 0 23.2355 0
          CHANNELS 3 Zrotation Xrotation Yrotation
          JOINT LeftFoot
          {
            OFFSET 0 18.9496 0
            CHANNELS 3 Zrotation Xrotation Yrotation
            JOINT LeftToeBase
            {
              OFFSET 0 16.0188 0
              CHANNELS 3 Zrotation Xrotation Yrotation
              End Site
              {
                OFFSET -0.0304289 7.75782 -0.894206
              }
            }
          }
        }
      }
    }
  }
}
MOTION
Frames: 11
Frame Time: 0.00208333
55.3066 122.744 45.9129 -3.2624 1.1774 8.4081 0.688367 -0.869512 -0.0165621 1.37733 2.26269 -0.121665 1.38017 3.90749 -0.144855 13.6877 8.45182 -4.42608 -10.4795 -5.28119 -2.8464 69.5248 -8.79383 -5.65313 95.1768 -0.560685 28.5166 -3.38311e-006 9.27186e-007 -1.054e-006 6.24058 0.0458079 -0.453164 -2.58126e-005 -2.9252e-006 -3.05279 8.02932 -4.95142 0.697658 -53.0785 3.96811 -3.42042 -107.116 -2.42015 -26.5309 2.7048e-006 1.12702e-006 -5.67448e-006 -4.02269 -0.162777 0.0857142 6.84271e-006 -3.80642e-006 3.04849 -8.02944 -4.9514 -0.697669 174.675 3.78439 2.24614 180 7.01507e-015 178.761 173.967 15.6795 -179.893 -5.45647e-007 -1.92831e-007 0.286619 -17.4069 66.4409 18.3255 8.13649 25.2327 -3.48774 -168.729 9.60724 -3.48371 4.54188e-006 -4.6773e-006 -1.08605 -1.57946 -19.2797 0.269334 -2.06898e-006 2.67357e-006 -0.314187 19.5735 69.0742 -20.4652 -8.1365 25.2327 3.48774 
55.295 122.623 45.9123 -3.26206 1.15241 8.41968 0.68742 -0.869169 -0.0152749 1.37544 2.2634 -0.117737 1.37824 3.9082 -0.140892 13.7033 8.51893 -4.42663 -10.4899 -5.35087 -2.84299 69.4828 -8.82268 -5.66696 95.2244 -0.618331 28.473 -3.38311e-006 9.27186e-007 -1.054e-006 6.29278 0.0465945 -0.451809 -2.58126e-005 -2.9252e-006 -3.05227 8.02932 -4.95142 0.697658 -53.1432 3.97585 -3.41373 -107.08 -2.53099 -26.3614 2.7048e-006 1.12702e-006 -5.67448e-006 -4.25592 -0.192649 0.0647314 6.84271e-006 -3.80642e-006 3.04427 -8.02944 -4.9514 -0.697669 174.681 3.72059 2.23761 180 7.01506e-015 178.759 173.982 15.7014 -179.893 -5.45647e-007 -1.92831e-007 0.286137 -17.4153 66.4512 18.3313 8.13649 25.2327 -3.48774 -168.716 9.57809 -3.46616 4.54188e-006 -4.6773e-006 -1.08688 -1.53177 -19.3207 0.279107 -2.06898e-006 2.67357e-006 -0.315742 19.5784 69.0789 -20.4699 -8.1365 25.2327 3.48774 
55.2782 122.509 45.8915 -3.26132 1.12959 8.43063 0.686457 -0.869159 -0.014 1.37353 2.26345 -0.113798 1.37627 3.90824 -0.136919 13.7168 8.58759 -4.42618 -10.4988 -5.41876 -2.83856 69.4399 -8.85168 -5.68085 95.2731 -0.675121 28.4296 -3.38311e-006 9.27186e-007 -1.054e-006 6.34389 0.0473928 -0.450045 -2.58126e-005 -2.9252e-006 -3.05169 8.02932 -4.95142 0.697658 -53.2113 3.98212 -3.40547 -107.042 -2.64127 -26.1912 2.7048e-006 1.12702e-006 -5.67448e-006 -4.48902 -0.215432 0.0439737 6.84271e-006 -3.80642e-006 3.04011 -8.02944 -4.9514 -0.697669 174.686 3.65963 2.22945 180 7.01506e-015 178.758 173.997 15.7233 -179.894 -5.45647e-007 -1.92831e-007 0.285639 -17.4238 66.4617 18.3373 8.13649 25.2327 -3.48774 -168.704 9.55176 -3.44882 4.54188e-006 -4.6773e-006 -1.08765 -1.48503 -19.3625 0.288718 -2.06898e-006 2.67357e-006 -0.317321 19.5838 69.084 -20.475 -8.1365 25.2327 3.48774 
55.2947 122.378 45.8285 -3.26023 1.10952 8.44072 0.685512 -0.86962 -0.0127905 1.37164 2.26255 -0.10999 1.37434 3.90735 -0.133077 13.7273 8.65858 -4.42497 -10.5058 -5.4855 -2.83342 69.3967 -8.88013 -5.69446 95.3226 -0.73104 28.3873 -3.38311e-006 9.27186e-007 -1.054e-006 6.39326 0.0481915 -0.447763 -2.58126e-005 -2.9252e-006 -3.05105 8.02932 -4.95142 0.697658 -53.2825 3.98669 -3.39554 -107.003 -2.75101 -26.0206 2.7048e-006 1.12702e-006 -5.67448e-006 -4.72129 -0.228469 0.0239555 6.84271e-006 -3.80642e-006 3.03605 -8.02944 -4.9514 -0.697669 174.69 3.60233 2.2218 180 7.01506e-015 178.756 174.011 15.7459 -179.895 -5.45647e-007 -1.92831e-007 0.285139 -17.4325 66.4723 18.3434 8.13649 25.2327 -3.48774 -168.692 9.52868 -3.43228 4.54188e-006 -4.6773e-006 -1.08838 -1.43993 -19.4052 0.29803 -2.06898e-006 2.67357e-006 -0.318911 19.5896 69.0895 -20.4805 -8.1365 25.2327 3.48774 
55.2867 122.271 45.8246 -3.2589 1.0928 8.44973 0.684619 -0.870688 -0.0116993 1.36986 2.26044 -0.106453 1.37251 3.90524 -0.129508 13.7343 8.73268 -4.42323 -10.5105 -5.55173 -2.82787 69.3538 -8.90732 -5.70745 95.3726 -0.786077 28.3466 -3.38311e-006 9.27186e-007 -1.054e-006 6.44023 0.0489796 -0.444856 -2.58126e-005 -2.9252e-006 -3.05032 8.02932 -4.95142 0.697658 -53.3566 3.98933 -3.38383 -106.963 -2.86024 -25.8499 2.7048e-006 1.12702e-006 -5.67448e-006 -4.95203 -0.229107 0.00519152 6.84271e-006 -3.80642e-006 3.03214 -8.02944 -4.9514 -0.697669 174.692 3.54954 2.21479 180 7.01505e-015 178.755 174.026 15.7696 -179.896 -5.45647e-007 -1.92831e-007 0.284651 -17.4412 66.483 18.3496 8.13649 25.2327 -3.48774 -168.68 9.50929 -3.41714 4.54188e-006 -4.6773e-006 -1.08908 -1.39716 -19.4486 0.306905 -2.06898e-006 2.67357e-006 -0.320501 19.5957 69.0953 -20.4862 -8.1365 25.2327 3.48774 
55.3009 122.13 45.7907 -3.25738 1.08001 8.45742 0.683811 -0.8725 -0.0107795 1.36825 2.25683 -0.103328 1.37086 3.90163 -0.126353 13.7369 8.81071 -4.42117 -10.5124 -5.61807 -2.82221 69.3118 -8.93256 -5.71948 95.4227 -0.840213 28.3085 -3.38311e-006 9.27186e-007 -1.054e-006 6.48416 0.0497461 -0.441215 -2.58126e-005 -2.9252e-006 -3.0495 8.02932 -4.95142 0.697658 -53.4333 3.98979 -3.37024 -106.924 -2.96898 -25.6795 2.7048e-006 1.12702e-006 -5.67448e-006 -5.18054 -0.214691 -0.0118037 6.84271e-006 -3.80642e-006 3.02843 -8.02944 -4.9514 -0.697669 174.693 3.5021 2.20857 180 7.01505e-015 178.754 174.042 15.7952 -179.896 -5.45647e-007 -1.92831e-007 0.284189 -17.4498 66.4936 18.3558 8.13649 25.2327 -3.48774 -168.668 9.49401 -3.40399 4.54188e-006 -4.6773e-006 -1.08974 -1.35741 -19.4929 0.315208 -2.06898e-006 2.67357e-006 -0.32208 19.6021 69.1013 -20.4921 -8.1365 25.2327 3.48774 
55.2927 122.006 45.7687 -3.25575 1.07173 8.46357 0.683122 -0.875194 -0.010084 1.36687 2.25146 -0.100756 1.36945 3.89626 -0.123756 13.7345 8.89343 -4.41902 -10.5111 -5.68517 -2.81676 69.2714 -8.95514 -5.73019 95.4725 -0.893434 28.2735 -3.38311e-006 9.27186e-007 -1.054e-006 6.52438 0.0504798 -0.436734 -2.58126e-005 -2.9252e-006 -3.04858 8.02932 -4.95142 0.697658 -53.5124 3.98784 -3.35468 -106.886 -3.07726 -25.5098 2.7048e-006 1.12702e-006 -5.67448e-006 -5.40611 -0.182564 -0.0265155 6.84271e-006 -3.80642e-006 3.02497 -8.02944 -4.9514 -0.697669 174.691 3.46085 2.20326 180 7.01505e-015 178.752 174.057 15.8233 -179.897 -5.45647e-007 -1.92831e-007 0.283768 -17.4582 66.504 18.362 8.13649 25.2327 -3.48774 -168.655 9.48329 -3.39343 4.54188e-006 -4.6773e-006 -1.09039 -1.32138 -19.538 0.322799 -2.06898e-006 2.67357e-006 -0.323635 19.6086 69.1074 -20.4981 -8.1365 25.2327 3.48774 
55.3094 121.855 45.7358 -3.2541 1.06856 8.46794 0.682585 -0.878906 -0.00966585 1.36579 2.24405 -0.098877 1.36834 3.88885 -0.121857 13.7263 8.98166 -4.41702 -10.5061 -5.75365 -2.8118 69.2333 -8.97436 -5.73925 95.5219 -0.945721 28.2424 -3.38311e-006 9.27186e-007 -1.054e-006 6.56026 0.0511695 -0.431303 -2.58126e-005 -2.9252e-006 -3.04754 8.02932 -4.95142 0.697658 -53.5937 3.98324 -3.33703 -106.849 -3.1851 -25.3412 2.7048e-006 1.12702e-006 -5.67448e-006 -5.62803 -0.130072 -0.0384294 6.84271e-006 -3.80642e-006 3.02181 -8.02944 -4.9514 -0.697669 174.687 3.42664 2.19901 180 7.01504e-015 178.751 174.074 15.8545 -179.899 -5.45647e-007 -1.92831e-007 0.2834 -17.4664 66.5141 18.3683 8.13649 25.2327 -3.48774 -168.642 9.47755 -3.38604 4.54188e-006 -4.6773e-006 -1.09102 -1.28974 -19.5839 0.329543 -2.06898e-006 2.67357e-006 -0.325155 19.6152 69.1136 -20.5042 -8.1365 25.2327 3.48774 
55.3002 121.721 45.7117 -3.2525 1.07106 8.47031 0.682234 -0.883774 -0.00957804 1.36509 2.23432 -0.0978317 1.36762 3.87912 -0.120799 13.7117 9.07617 -4.41538 -10.497 -5.82415 -2.80766 69.1979 -8.9895 -5.7463 95.5703 -0.997054 28.2161 -3.38311e-006 9.27186e-007 -1.054e-006 6.59113 0.0518042 -0.424816 -2.58126e-005 -2.9252e-006 -3.04637 8.02932 -4.95142 0.697658 -53.6769 3.97576 -3.31719 -106.815 -3.29252 -25.1738 2.7048e-006 1.12702e-006 -5.67448e-006 -5.84561 -0.0545606 -0.0470308 6.84271e-006 -3.80642e-006 3.019 -8.02944 -4.9514 -0.697669 174.681 3.4003 2.19595 180 7.01504e-015 178.75 174.091 15.8893 -179.9 -5.45647e-007 -1.92831e-007 0.283101 -17.4742 66.5239 18.3744 8.13649 25.2327 -3.48774 -168.628 9.47723 -3.38243 4.54188e-006 -4.6773e-006 -1.09163 -1.2632 -19.6306 0.3353 -2.06898e-006 2.67357e-006 -0.32663 19.6218 69.1198 -20.5101 -8.1365 25.2327 3.48774 
55.3343 121.573 45.6705 -3.25102 1.07984 8.47045 0.682103 -0.889935 -0.00987359 1.36481 2.222 -0.0977608 1.36734 3.8668 -0.120723 13.6899 9.17776 -4.41435 -10.4833 -5.8973 -2.80461 69.166 -8.99987 -5.751 95.6175 -1.04741 28.1951 -3.38311e-006 9.27186e-007 -1.054e-006 6.61636 0.0523729 -0.417164 -2.58126e-005 -2.9252e-006 -3.04506 8.02932 -4.95142 0.697658 -53.7617 3.96516 -3.29507 -106.784 -3.39955 -25.0083 2.7048e-006 1.12702e-006 -5.67448e-006 -6.05815 0.046626 -0.0518053 6.84271e-006 -3.80642e-006 3.01659 -8.02944 -4.9514 -0.697669 174.673 3.38267 2.19422 180 7.01504e-015 178.748 174.109 15.9285 -179.901 -5.45647e-007 -1.92831e-007 0.282884 -17.4816 66.5333 18.3805 8.13649 25.2327 -3.48774 -168.613 9.48275 -3.38319 4.54188e-006 -4.6773e-006 -1.09225 -1.24244 -19.6783 0.339933 -2.06898e-006 2.67357e-006 -0.328046 19.6284 69.126 -20.5159 -8.1365 25.2327 3.48774 
55.3273 121.429 45.6527 -3.24955 1.09569 8.46809 0.682134 -0.897718 -0.0105993 1.36485 2.20643 -0.0987392 1.36739 3.85123 -0.121702 13.6599 9.28932 -4.41308 -10.4639 -5.97225 -2.80146 69.1359 -9.00544 -5.75331 95.6658 -1.0977 28.1821 -3.38311e-006 9.27186e-007 -1.054e-006 6.63322 0.0509084 -0.407741 -2.58126e-005 -2.9252e-006 -3.04353 8.02932 -4.95142 0.697658 -53.8502 3.95075 -3.26981 -106.753 -3.5077 -24.8431 2.7048e-006 1.12702e-006 -5.67448e-006 -6.26905 0.171955 -0.0536377 6.84271e-006 -3.80642e-006 3.01456 -8.02944 -4.9514 -0.697669 174.662 3.37477 2.19311 180 7.01503e-015 178.747 174.128 15.9715 -179.903 -5.45647e-007 -1.92831e-007 0.282707 -17.4886 66.5422 18.3865 8.13649 25.2327 -3.48774 -168.598 9.49567 -3.38744 4.54188e-006 -4.6773e-006 -1.09281 -1.22682 -19.7276 0.3436 -2.06898e-006 2.67357e-006 -0.329481 19.6359 69.1331 -20.5226 -8.1365 25.2327 3.48774 
